<svg width="120" height="120" viewBox="0 0 120 120" xmlns="http://www.w3.org/2000/svg"><title>Authlib</title><g transform="translate(10 15)" fill="none" fill-rule="evenodd"><path d="M80.393 20.76c1.676-8.444.74-14.852-3.223-17.398-1.32-.85-2.904-1.22-4.685-1.154-9.623.362-25.148 13.475-37.833 32.808-15.035 22.913-20.377 45.877-11.925 51.309 4.011 2.579 10.404.75 17.627-4.343" stroke="#3E7FCB" stroke-width="5" stroke-linecap="round"/><path d="M88.104 58.229c7.135-2.74 11.523-6.49 11.751-10.797.528-9.96-21.374-19.182-48.94-20.612a138.292 138.292 0 0 0-7.61-.196C19.274 26.704.52 33.228.041 42.254c-.228 4.299 3.729 8.467 10.512 11.926" stroke="#3E7FCB" stroke-width="5" stroke-linecap="round"/><path d="M43.13 5.914C38.249 1.904 33.67-.25 29.99.024a7.152 7.152 0 0 0-2.726.737c-8.98 4.528-6.111 27.947 6.42 52.29 12.533 24.343 29.97 40.403 38.95 35.875 8.634-4.355 6.304-26.177-5.033-49.493" stroke="#3E7FCB" stroke-width="5" stroke-linecap="round"/><path d="M58.247 58c-1.194 0-2.243-.78-2.61-1.94l-1.33-4.176h-6.658l-1.237 4.139c-.373 1.182-1.43 1.974-2.63 1.974a2.67 2.67 0 0 1-.852-.14c-1.436-.444-2.25-2.035-1.81-3.545l5.619-18.332c.365-1.167 1.44-1.98 2.613-1.98h2.988c1.18 0 2.254.8 2.612 1.944l5.91 18.326c.473 1.498-.31 3.107-1.743 3.587a2.743 2.743 0 0 1-.872.143z" stroke="#3E7FCB" stroke-width="3"/><ellipse fill="#3E7FCB" cx="61.375" cy="5.609" rx="5.625" ry="5.609"/><ellipse fill="#3E7FCB" cx="6.375" cy="33.033" rx="5.625" ry="5.609"/><ellipse fill="#3E7FCB" cx="58.625" cy="84.391" rx="5.625" ry="5.609"/></g></svg>