<svg width="560" height="560" fill="none" xmlns="http://www.w3.org/2000/svg"><circle cx="280" cy="280" r="280" fill="#3E7FCB"/><circle cx="280" cy="280" r="260" fill="#fff"/><circle cx="280" cy="280" r="240" fill="#3E7FCB"/><path d="M366.969 420c-14.339 0-26.922-9.092-31.314-22.625l-15.971-48.723h-79.896l-14.84 48.279c-4.479 13.796-17.158 23.031-31.571 23.031-3.46 0-6.897-.548-10.216-1.626-17.227-5.179-27.008-23.744-21.73-41.362l67.438-213.879C233.247 149.49 246.139 140 260.221 140h35.859c14.161 0 27.051 9.328 31.345 22.686l70.922 213.798c5.671 17.48-3.72 36.244-20.922 41.851A33.792 33.792 0 0 1 366.969 420z" fill="#fff" stroke="#3E7FCB" stroke-width="5.363"/></svg>